# File created by Blade
# Date/Time:  Tue Apr 07 20:53:11 2015
# Frame Rate: 120.000 fps
#------------------------------------------------------
:FULLY-SPECIFIED
:DEGREES
543
root -22.793129 33.254032 6.003841 4.121475 -78.909773 -4.616679
Spine -19.100843 -6.717859 1.094964
Head -27.130268 1.213889 3.792309
LeftShoulder -22.348691 16.365010 42.606100
LeftArm 118.061815 -64.726698 -76.097497
LeftForeArm 21.889735 -0.000000 26.534342
LeftHand 21.152584 -0.000000 34.045628
LeftHandThumb1 -26.253704 0.000000 33.147579
RightShoulder -26.802440 36.721421 -66.136828
RightArm 57.354561 25.679833 37.880596
RightForeArm -18.551290 -0.000000 24.602664
RightHand 26.500279 -0.000000 -42.975591
RightHandThumb1 -24.326973 -0.000000 -32.862282
LeftUpLeg 7.674733 -2.482312 -4.715650
LeftLeg -1.295220 -0.000000 0.000000
LeftFoot -4.333765 11.996641 -7.698046
LeftToeBase -16.577639 -0.000000 0.000000
RightUpLeg -33.837787 -8.721661 6.184204
RightLeg 1.616987 -0.000000 -0.000000
RightFoot 44.165931 -13.767876 -1.639019
RightToeBase 21.291549 -0.000000 -0.000000
544
root -22.809098 33.266814 6.024943 4.274227 -78.778170 -4.980750
Spine -19.631241 -6.954161 1.344822
Head -29.870886 1.437248 3.610279
LeftShoulder -22.598363 16.097961 42.486130
LeftArm 118.216137 -64.869400 -76.740464
LeftForeArm 20.567916 -0.000000 26.648308
LeftHand 21.051480 0.000000 34.327437
LeftHandThumb1 -26.253704 0.000000 33.147579
RightShoulder -26.942679 36.855332 -66.186006
RightArm 57.343727 26.239006 37.726699
RightForeArm -18.139124 0.000000 24.558295
RightHand 26.194568 -0.000000 -42.512489
RightHandThumb1 -24.326973 -0.000000 -32.862282
LeftUpLeg 7.894780 -2.370210 -4.670912
LeftLeg -1.301153 -0.000000 0.000000
LeftFoot -4.197361 11.899439 -7.555561
LeftToeBase -16.615112 -0.000000 0.000000
RightUpLeg -34.774360 -8.813224 6.279235
RightLeg 0.714575 -0.000000 -0.000000
RightFoot 43.850477 -13.862031 -1.255381
RightToeBase 21.788465 -0.000000 -0.000000
545
root -22.828980 33.282360 6.045420 4.539379 -78.622923 -5.475756
Spine -20.198368 -7.091764 1.634906
Head -32.581090 1.560292 3.312245
LeftShoulder -22.776175 15.992847 42.123698
LeftArm 119.369193 -65.041253 -78.158047
LeftForeArm 19.435177 -0.000000 26.533293
LeftHand 21.269812 0.000000 34.412237
LeftHandThumb1 -26.253704 0.000000 33.147579
RightShoulder -27.285209 37.168311 -66.789126
RightArm 56.908054 26.746999 38.088556
RightForeArm -18.049175 -0.000000 24.951567
RightHand 25.588675 0.000000 -42.251472
RightHandThumb1 -24.326973 -0.000000 -32.862282
LeftUpLeg 8.116598 -2.306945 -4.592677
LeftLeg -1.266928 -0.000000 0.000000
LeftFoot -4.078127 11.787800 -7.448707
LeftToeBase -16.671460 -0.000000 0.000000
RightUpLeg -35.749707 -9.040856 6.491778
RightLeg -0.168638 -0.000000 0.000000
RightFoot 43.837039 -14.186749 -0.755816
RightToeBase 21.840633 -0.000000 -0.000000
546
root -22.852402 33.294476 6.065208 4.976915 -78.465946 -6.038150
Spine -20.962589 -7.227375 1.916475
Head -35.105101 1.626901 3.091639
LeftShoulder -22.889595 16.168602 41.803388
LeftArm 121.146986 -65.252477 -80.258944
LeftForeArm 18.249515 -0.000000 26.420663
LeftHand 21.238419 -0.000000 34.628743
LeftHandThumb1 -26.253704 0.000000 33.147579
RightShoulder -27.243508 37.100035 -66.694444
RightArm 56.849567 27.591849 37.985106
RightForeArm -17.595296 -0.000000 25.116428
RightHand 25.650808 -0.000000 -41.432269
RightHandThumb1 -24.326973 -0.000000 -32.862282
LeftUpLeg 8.222076 -2.304623 -4.495276
LeftLeg -1.189083 -0.000000 0.000000
LeftFoot -4.035435 11.702560 -7.355370
LeftToeBase -16.673409 -0.000000 0.000000
RightUpLeg -36.943906 -9.396883 6.862621
RightLeg -0.875994 -0.000000 0.000000
RightFoot 43.884301 -14.633023 -0.168249
RightToeBase 22.114566 -0.000000 -0.000000
547
root -22.879547 33.304471 6.085043 5.300078 -78.323130 -6.469227
Spine -21.785682 -7.349034 2.157699
Head -37.664678 1.612565 2.916134
LeftShoulder -22.994382 16.221310 41.577411
LeftArm 122.690948 -65.422608 -82.152497
LeftForeArm 16.904775 0.000000 26.170893
LeftHand 21.194920 -0.000000 34.599762
LeftHandThumb1 -26.253704 0.000000 33.147579
RightShoulder -27.139263 37.067028 -66.564318
RightArm 56.666534 28.503905 37.826465
RightForeArm -16.975419 -0.000000 25.400623
RightHand 25.603548 -0.000000 -40.700756
RightHandThumb1 -24.326973 -0.000000 -32.862282
LeftUpLeg 8.306658 -2.403886 -4.426764
LeftLeg -1.075756 -0.000000 0.000000
LeftFoot -4.066266 11.676100 -7.336111
LeftToeBase -16.626738 -0.000000 0.000000
RightUpLeg -38.271316 -9.874392 7.367455
RightLeg -1.414404 -0.000000 0.000000
RightFoot 43.912094 -14.755669 0.203929
RightToeBase 22.772532 -0.000000 -0.000000
548
root -22.911962 33.311709 6.106859 5.371219 -78.187626 -6.690411
Spine -22.592903 -7.400182 2.308227
Head -40.155301 1.596204 2.764626
LeftShoulder -23.129004 16.173500 41.396907
LeftArm 124.806210 -65.148146 -84.671264
LeftForeArm 15.820456 -0.000000 25.862720
LeftHand 20.988627 -0.000000 34.383326
LeftHandThumb1 -26.253704 0.000000 33.147579
RightShoulder -26.997323 36.955304 -66.402813
RightArm 56.428784 29.551444 37.751836
RightForeArm -16.607086 -0.000000 25.844852
RightHand 25.384474 0.000000 -40.543289
RightHandThumb1 -24.326973 -0.000000 -32.862282
LeftUpLeg 8.432363 -2.602916 -4.408849
LeftLeg -0.915517 -0.000000 0.000000
LeftFoot -4.149371 11.665015 -7.409934
LeftToeBase -16.703020 -0.000000 0.000000
RightUpLeg -39.605900 -10.303956 7.789905
RightLeg -1.828280 -0.000000 0.000000
RightFoot 43.884591 -14.833420 0.546511
RightToeBase 23.078940 -0.000000 -0.000000
549
root -22.948188 33.319477 6.127561 5.421872 -78.053373 -6.925902
Spine -23.433761 -7.461532 2.496351
Head -42.570736 1.412184 2.647960
LeftShoulder -23.151889 16.209285 41.088769
LeftArm 126.677004 -65.245731 -86.829980
LeftForeArm 14.037397 -0.000000 25.568236
LeftHand 20.574590 -0.000000 34.117266
LeftHandThumb1 -26.253704 0.000000 33.147579
RightShoulder -27.017170 37.159057 -66.510309
RightArm 56.031200 30.310358 37.769395
RightForeArm -16.287339 -0.000000 26.362124
RightHand 24.776228 -0.000000 -40.544632
RightHandThumb1 -24.326973 -0.000000 -32.862282
LeftUpLeg 8.579754 -2.771339 -4.376364
LeftLeg -0.725645 -0.000000 0.000000
LeftFoot -4.272454 11.644071 -7.479683
LeftToeBase -16.666261 -0.000000 0.000000
RightUpLeg -40.935580 -10.697842 8.229174
RightLeg -2.147109 -0.000000 0.000000
RightFoot 43.792337 -14.730442 0.645666
RightToeBase 23.389324 -0.000000 -0.000000
550
root -22.988375 33.323811 6.148565 5.492258 -77.958198 -7.190527
Spine -24.297285 -7.461611 2.635816
Head -45.027755 1.260306 2.603642
LeftShoulder -23.182290 15.950687 41.038158
LeftArm 127.727650 -65.159756 -88.407822
LeftForeArm 12.099848 -0.000000 25.360109
LeftHand 20.162186 -0.000000 34.010923
LeftHandThumb1 -26.253704 0.000000 33.147579
RightShoulder -26.742113 37.008613 -66.161977
RightArm 55.819444 31.474388 37.588167
RightForeArm -15.898973 -0.000000 26.844208
RightHand 24.514978 -0.000000 -40.584780
RightHandThumb1 -24.326973 -0.000000 -32.862282
LeftUpLeg 8.749914 -2.959222 -4.340814
LeftLeg -0.530549 -0.000000 0.000000
LeftFoot -4.467881 11.619368 -7.623928
LeftToeBase -16.601043 -0.000000 0.000000
RightUpLeg -42.257278 -10.932398 8.590692
RightLeg -2.417011 -0.000000 0.000000
RightFoot 43.756723 -14.615676 0.670726
RightToeBase 23.686371 -0.000000 -0.000000
551
root -23.029753 33.326889 6.168232 5.310214 -77.884874 -7.244445
Spine -25.133453 -7.463478 2.635754
Head -47.499964 1.267859 2.671625
LeftShoulder -23.276279 15.348917 41.212653
LeftArm 128.283965 -64.722496 -89.583214
LeftForeArm 10.157617 -0.000000 25.113815
LeftHand 19.721485 0.000000 33.858854
LeftHandThumb1 -26.253704 0.000000 33.147579
RightShoulder -26.694311 37.231791 -65.990652
RightArm 55.319876 32.249358 37.305115
RightForeArm -15.584077 -0.000000 27.259511
RightHand 24.832131 -0.000000 -40.795441
RightHandThumb1 -24.326973 -0.000000 -32.862282
LeftUpLeg 8.964309 -3.169438 -4.358820
LeftLeg -0.323569 -0.000000 0.000000
LeftFoot -4.684894 11.621191 -7.819186
LeftToeBase -16.482226 -0.000000 0.000000
RightUpLeg -43.541012 -11.069674 8.841906
RightLeg -2.646060 -0.000000 0.000000
RightFoot 43.764374 -14.604708 0.701902
RightToeBase 24.027406 -0.000000 -0.000000
552
root -23.075468 33.322260 6.189479 5.144431 -77.848108 -7.244418
Spine -26.124243 -7.473959 2.670942
Head -49.791666 1.258197 2.807815
LeftShoulder -23.247436 15.300248 41.307526
LeftArm 129.765315 -64.567076 -91.852712
LeftForeArm 8.218486 -0.000000 25.067985
LeftHand 19.527685 -0.000000 33.654115
LeftHandThumb1 -26.253704 0.000000 33.147579
RightShoulder -26.121343 36.981543 -65.315685
RightArm 54.970593 33.591006 36.770500
RightForeArm -15.092501 -0.000000 27.642659
RightHand 24.653667 -0.000000 -41.179923
RightHandThumb1 -24.326973 -0.000000 -32.862282
LeftUpLeg 9.096474 -3.382682 -4.406602
LeftLeg -0.061378 -0.000000 0.000000
LeftFoot -4.959030 11.708364 -7.943535
LeftToeBase -16.469235 -0.000000 0.000000
RightUpLeg -44.898282 -11.061262 8.989426
RightLeg -2.811885 -0.000000 0.000000
RightFoot 43.812389 -14.584433 0.820347
RightToeBase 24.182602 -0.000000 -0.000000
553
root -23.126536 33.315855 6.207986 5.081381 -77.798640 -7.384758
Spine -27.120394 -7.511598 2.736368
Head -52.039206 1.334279 2.890381
LeftShoulder -23.228335 15.273312 41.397810
LeftArm 131.299193 -64.380715 -94.218042
LeftForeArm 6.212138 0.000000 25.106111
LeftHand 18.799397 0.000000 33.999011
LeftHandThumb1 -26.253704 0.000000 33.147579
RightShoulder -25.622574 36.863097 -64.733463
RightArm 54.513104 34.769833 36.154570
RightForeArm -14.655485 -0.000000 27.868814
RightHand 24.643746 -0.000000 -41.863680
RightHandThumb1 -24.326973 -0.000000 -32.862282
LeftUpLeg 9.255988 -3.491718 -4.423392
LeftLeg 0.230339 -0.000000 -0.000000
LeftFoot -5.223233 11.775296 -7.939020
LeftToeBase -16.541212 -0.000000 0.000000
RightUpLeg -46.189098 -10.930812 9.028048
RightLeg -2.977676 -0.000000 0.000000
RightFoot 43.915470 -14.699762 0.926493
RightToeBase 24.649545 -0.000000 -0.000000
554
root -23.182632 33.306204 6.225159 5.227002 -77.737687 -7.715938
Spine -28.223957 -7.580478 2.864658
Head -54.149544 1.528918 2.936710
LeftShoulder -23.161846 15.234625 41.553348
LeftArm 132.669604 -64.159565 -96.510992
LeftForeArm 4.309309 0.000000 25.205432
LeftHand 18.331255 -0.000000 34.601642
LeftHandThumb1 -26.253704 0.000000 33.147579
RightShoulder -25.068881 36.809003 -64.139674
RightArm 54.016163 35.898176 35.491743
RightForeArm -14.189784 -0.000000 28.029269
RightHand 24.453396 -0.000000 -42.324277
RightHandThumb1 -24.326973 -0.000000 -32.862282
LeftUpLeg 9.392534 -3.593818 -4.417245
LeftLeg 0.538462 -0.000000 -0.000000
LeftFoot -5.527391 11.960134 -7.809692
LeftToeBase -16.562373 -0.000000 0.000000
RightUpLeg -47.529718 -10.834801 9.146161
RightLeg -3.021683 -0.000000 0.000000
RightFoot 43.860098 -14.668111 0.979619
RightToeBase 24.939478 -0.000000 -0.000000
555
root -23.230343 33.326657 6.226062 4.314474 -77.493929 -7.728005
Spine -27.750235 -9.628426 2.979594
Head -58.138268 4.293017 4.260889
LeftShoulder -26.530475 15.203513 42.094660
LeftArm 132.841132 -61.760115 -97.884856
LeftForeArm 3.423689 -0.000000 25.552213
LeftHand 18.271280 -0.000000 35.149211
LeftHandThumb1 -26.253704 0.000000 33.147579
RightShoulder -25.409953 38.661954 -62.650571
RightArm 53.934682 36.483739 34.600077
RightForeArm -13.123609 -0.000000 28.224616
RightHand 24.187343 -0.000000 -42.145787
RightHandThumb1 -24.326973 -0.000000 -32.862282
LeftUpLeg 10.182024 -3.698342 -4.456672
LeftLeg 0.953168 -0.000000 -0.000000
LeftFoot -5.598190 12.015062 -7.851765
LeftToeBase -16.475711 -0.000000 0.000000
RightUpLeg -48.090750 -11.076583 9.155427
RightLeg -3.127731 -0.000000 0.000000
RightFoot 44.067442 -14.601842 0.905478
RightToeBase 25.065404 -0.000000 -0.000000
